<?xml version="1.0" encoding="utf-8"?>
<svg viewBox="0 0 700.18 489.78" xmlns="http://www.w3.org/2000/svg">
  <defs>
    <style>
      .cls-1, .cls-2, .cls-3, .cls-4, .cls-5, .cls-6, .cls-7, .cls-8, .cls-9, .cls-10, .cls-11, .cls-12, .cls-13 {
        fill: none;
      }

      .cls-14 {
        letter-spacing: 0em;
      }

      .cls-15 {
        letter-spacing: .02em;
      }

      .cls-2 {
        clip-path: url(#clippath-1);
      }

      .cls-16, .cls-17 {
        fill: #f69999;
      }

      .cls-18, .cls-19, .cls-20, .cls-21, .cls-22, .cls-23, .cls-24, .cls-25, .cls-26 {
        fill: #231f20;
      }

      .cls-18, .cls-19, .cls-23, .cls-26 {
        font-size: 9px;
      }

      .cls-18, .cls-27, .cls-26 {
        letter-spacing: 0em;
      }

      .cls-18, .cls-22, .cls-23 {
        font-family: Garamond-Italic, Garamond;
        font-style: italic;
      }

      .cls-3, .cls-4, .cls-5, .cls-8, .cls-17, .cls-9, .cls-12, .cls-13 {
        stroke-linejoin: round;
      }

      .cls-3, .cls-4, .cls-12, .cls-13 {
        stroke-width: 3px;
      }

      .cls-3, .cls-28, .cls-8, .cls-17, .cls-13 {
        stroke: #010101;
      }

      .cls-4, .cls-7, .cls-12 {
        stroke: #000;
      }

      .cls-19, .cls-20, .cls-29, .cls-21, .cls-25, .cls-30, .cls-26 {
        font-family: Garamond, Garamond;
      }

      .cls-31 {
        letter-spacing: .02em;
      }

      .cls-5 {
        stroke-width: 1.5px;
      }

      .cls-5, .cls-9 {
        stroke: #fff;
      }

      .cls-32 {
        letter-spacing: .13em;
      }

      .cls-33 {
        letter-spacing: -.02em;
      }

      .cls-34 {
        letter-spacing: -.02em;
      }

      .cls-35 {
        letter-spacing: .13em;
      }

      .cls-20, .cls-29, .cls-21, .cls-22 {
        font-size: 8px;
      }

      .cls-29, .cls-36, .cls-30 {
        fill: #010101;
      }

      .cls-6, .cls-37, .cls-38, .cls-39, .cls-28, .cls-7, .cls-11 {
        stroke-miterlimit: 10;
      }

      .cls-6, .cls-37, .cls-17, .cls-11 {
        stroke-width: .5px;
      }

      .cls-6, .cls-38, .cls-39, .cls-11 {
        stroke: #231f20;
      }

      .cls-6, .cls-8, .cls-12, .cls-13 {
        stroke-linecap: round;
      }

      .cls-37 {
        fill: #9fc9eb;
        stroke: #676767;
      }

      .cls-40 {
        letter-spacing: .01em;
      }

      .cls-41 {
        letter-spacing: -.02em;
      }

      .cls-42 {
        letter-spacing: -.08em;
      }

      .cls-43 {
        letter-spacing: .03em;
      }

      .cls-44 {
        letter-spacing: .03em;
      }

      .cls-45 {
        letter-spacing: -.01em;
      }

      .cls-46 {
        letter-spacing: -.01em;
      }

      .cls-38 {
        fill: #fcf9ce;
      }

      .cls-39, .cls-28 {
        fill: #fff;
      }

      .cls-47 {
        letter-spacing: -.01em;
      }

      .cls-48 {
        letter-spacing: -.01em;
      }

      .cls-49 {
        letter-spacing: -.01em;
      }

      .cls-7 {
        stroke-width: 2px;
      }

      .cls-50 {
        letter-spacing: -.03em;
      }

      .cls-51 {
        letter-spacing: .02em;
      }

      .cls-52 {
        letter-spacing: -.06em;
      }

      .cls-8 {
        stroke-width: .96px;
      }

      .cls-21 {
        letter-spacing: 0em;
      }

      .cls-9 {
        stroke-width: 1.2px;
      }

      .cls-53 {
        letter-spacing: 0em;
      }

      .cls-36 {
        font-family: ESRINorth, ESRINorth;
        font-size: 38px;
      }

      .cls-54 {
        letter-spacing: -.02em;
      }

      .cls-55 {
        letter-spacing: .02em;
      }

      .cls-24 {
        font-family: Garamond-Bold, Garamond;
        font-weight: 700;
      }

      .cls-24, .cls-25, .cls-30 {
        font-size: 7px;
      }

      .cls-56 {
        letter-spacing: -.03em;
      }

      .cls-57 {
        letter-spacing: -.04em;
      }

      .cls-58 {
        letter-spacing: -.02em;
      }

      .cls-59 {
        letter-spacing: -.02em;
      }

      .cls-60 {
        letter-spacing: 0em;
      }

      .cls-10 {
        clip-path: url(#clippath);
      }

      .cls-61 {
        letter-spacing: .04em;
      }
    </style>
    <clipPath id="clippath">
      <rect class="cls-1" x="50.1" y="12.02" width="576" height="432"/>
    </clipPath>
    <clipPath id="clippath-1">
      <rect class="cls-1" x="50.1" y="12.02" width="576" height="432"/>
    </clipPath>
  </defs>
  <g id="Color_Base" data-name="Color Base" transform="matrix(1, 0, 0, 1, -0.523415, -0.601537)">
    <rect class="cls-38" x="50.1" y="12.02" width="576" height="432"/>
  </g>
  <g id="River">
    <path class="cls-37" d="m219.32,435.39c-3.61-53.95,59.68-77.42,81.19-119.74,20.67-58.92-40.85-33.59-71.41-64.37-16.26-24.73-43.97-45.95-61.62-69.07-40.37-88.83,61.24-50.68,89.8-103.11,2.88-10.24-4.75-26.51-8.22-35.61-1.08-11.23-9.64-26.49-12.13-37.37,0,0,14.28.98,14.28.98.8,8.6,4.43,13.34,4.11,23.87-.98,4.5,0,2.15.98,6.85,3.16,8.21,7.82,17.15,9.98,23.28,7.07,66.4-49.76,56.52-92.54,72.01-25.95,30.92,50.81,101.29,75.33,117.78,3.94,3.76,24.1.15,28.96.2,9.8,1.29,23.25,5.33,31.3,11.93,11.92,19.76,8.07,44.63-3.13,63.78-36.59,35.14-86.84,69.01-75.52,127.17-15.87-2.19-9.29-2.15-11.35-18.59Zm77.48-166.11c19.1,5.74-9.25-20.71-32.09-11.35.8,5.02,26.05,9.34,32.09,11.35Z"/>
  </g>
  <g id="Walls">
    <path class="cls-12" d="m310.88,314.67c5.43.98,8.28-.91,9.91,5.61-1.15,5.56-4.53,16.89-6.39,22.3-2.24,1.5-3.98,4.6-6.78,2.09-6.53,3.56-11.44,7.25-14.61,14.22,2.47,2.21.84,7.66.26,10.3,0,0,1.96,9.91,2.22,10.43s4.57,9.26,5.09,9.78-.26,5.48,3.91,5.09c7.46.76,10.26-.11,15.91-1.96,2.98-3.91,11.71,2.83,14.35,3,5.43-1.74,15.95,5.54,20.22,7.83,0,0,1.96,3.91,1.56,6.26-1.29,8.88,2.08,14.04,8.09,19.17.39.13,11.09,1.7,11.09,1.7,7.02-4.9,22.91-16.03,27.26-25.17,3.77-12.94-2.19-28.43-.78-40.3,4.86-8.87,16.89-16.51,23.48-24.26,8.51-1.48,6.99-6.48,11.74-11.74,10.22-3.62,27.89-2.2,37.57-6,17.11-12.19,14.57-20.44,17.74-39.13-1.3-2.71-3.59-3.97-5.35-6.26-.63-6.51,2.04-14.21,4.18-20.09,0,0,10.83-15.39,10.83-15.39l10.83-33.65s.13-35.35,1.3-37.04c1.17-1.7,8.74-10.04,8.74-10.04-1.1-6.93-1.76-22.03-1.56-29.48-12.1-25.8-24.56-56.44-35.87-82.3-2.6-6.96-7.13-8.87-14.09-10.43-.78-.26-11.09,1.56-11.09,1.56-2.44,2.01-12.37,8.34-12,12,3.43,5.34-1.28,12.99-4.04,17.48,0,0-8.61,8.61-8.61,8.61.31,1.22-.63,4.78-1.04,6-16.64,6.1-19.62,12.76-28.69,26.61-3.33,1.61-9.18,2.81-13.04,2.87-6.55,2.39-17.21,7.85-23.74,10.96-3.8,1.73-.29,5.82,0,8.35-1.16,3.82.34,9.04,1.96,12.52-.93,2.44-1.1,15.5-1.57,18,.95,3.12,2.68,9.8,3.13,12.91,3.7,6.43,5.32,12.66,4.43,19.96-4.41,9.58-9.59,15.66-18.91,20.74-.98.29-9.06,6.44-9.39,2.48-.13-.39-2.22-3.65-2.87-4.43s.78-1.04-1.57-1.17.52-.91-3.26-.13c-3.43.26-5.05,3.63-5.87,4.57-1.36,1.56-.07,1.29,1.83,4.83,1.3,2.22,1.17,1.83,1.3,2.61s.39-1.96-.13,2.48-.39,4.7-1.43,4.17c-3.99-2-5.35-1.7-5.74-1.3-.34.15-4.8,4.32-4.96,4.04,0,0-1.56,3.26-1.56,3.26,7.47,21.92,1.68,15.26-14.22,25.04"/>
  </g>
  <g id="Roads">
    <g id="Roads_Base" data-name="Roads Base">
      <g class="cls-10">
        <polyline class="cls-4" points="333.19 453.19 355.1 385.89 407.14 338.93 480.11 419.73 511.62 477.46"/>
        <polyline class="cls-4" points="355.1 385.89 336.71 336.59 337.49 322.89 330.84 304.11 344.93 290.41 365.67 246.19 389.93 252.06 406.36 250.5 416.54 254.41 423.97 257.54 490.49 273.19 642.71 265.76"/>
        <polyline class="cls-4" points="297.58 284.54 160.63 276.22 .58 343.24"/>
        <polyline class="cls-4" points="135.19 488.8 254.54 349.89 275.28 325.24 292.49 287.67 297.58 284.54 326.93 273.98 326.54 262.24 341.41 257.15 353.14 244.24 353.54 240.72 365.67 246.19"/>
        <line class="cls-4" x1="298.17" y1="238.76" x2="278.01" y2="283.76"/>
        <polyline class="cls-4" points="308.14 244.24 216.97 191.8 193.49 140.54 127.36 124.89 26.8 122.54"/>
        <polyline class="cls-4" points="274.88 .46 335.14 189.46 351.19 210.19 355.88 224.67 353.54 240.72"/>
        <polyline class="cls-4" points="362.93 245.41 367.62 234.46 388.36 218.8 436.88 203.93 506.93 106.89 584.16 64.54"/>
        <polyline class="cls-4" points="563.28 3.98 489.32 47.41 426.32 120.59 436.88 203.93 462.32 207.85 494.8 192.59 517.1 193.37 699.45 91.63"/>
        <line class="cls-4" x1="665.41" y1="238.76" x2="517.1" y2="193.37"/>
        <line class="cls-4" x1="193.49" y1="140.54" x2="317.93" y2="137.8"/>
        <polyline class="cls-4" points="407.14 338.93 400.88 330.72 344.93 290.41"/>
        <line class="cls-4" x1="420.06" y1="256.37" x2="402.32" y2="332.67"/>
      </g>
    </g>
    <g id="Roads_Highlight" data-name="Roads Highlight">
      <g class="cls-2">
        <polyline class="cls-5" points="333.19 453.19 355.1 385.89 407.14 338.93 480.11 419.73 511.62 477.46"/>
        <polyline class="cls-5" points="355.1 385.89 336.71 336.59 337.49 322.89 330.84 304.11 344.93 290.41 365.67 246.19 389.93 252.06 406.36 250.5 416.54 254.41 423.97 257.54 490.49 273.19 642.71 265.76"/>
        <polyline class="cls-5" points="297.58 284.54 160.63 276.22 .58 343.24"/>
        <polyline class="cls-5" points="135.19 488.8 254.54 349.89 275.28 325.24 292.49 287.67 297.58 284.54 326.93 273.98 326.54 262.24 341.41 257.15 353.14 244.24 353.54 240.72 365.67 246.19"/>
        <line class="cls-5" x1="298.17" y1="238.76" x2="278.01" y2="283.76"/>
        <polyline class="cls-5" points="308.14 244.24 216.97 191.8 193.49 140.54 127.36 124.89 26.8 122.54"/>
        <polyline class="cls-5" points="274.88 .46 335.14 189.46 351.19 210.19 355.88 224.67 353.54 240.72"/>
        <polyline class="cls-5" points="362.93 245.41 367.62 234.46 388.36 218.8 436.88 203.93 506.93 106.89 584.16 64.54"/>
        <polyline class="cls-5" points="563.28 3.98 489.32 47.41 426.32 120.59 436.88 203.93 462.32 207.85 494.8 192.59 517.1 193.37 699.45 91.63"/>
        <line class="cls-5" x1="665.41" y1="238.76" x2="517.1" y2="193.37"/>
        <line class="cls-5" x1="193.49" y1="140.54" x2="318.71" y2="137.8"/>
        <polyline class="cls-5" points="407.14 338.93 400.88 330.72 344.93 290.41"/>
        <line class="cls-5" x1="420.06" y1="256.37" x2="402.32" y2="332.67"/>
      </g>
    </g>
  </g>
  <g id="Buildings">
    <rect class="cls-17" x="238.24" y="390.81" width="52.85" height="6.5" transform="translate(-201.12 302.56) rotate(-45)"/>
    <rect class="cls-17" x="429.47" y="282.32" width="22.86" height="25.3" transform="translate(-80.89 199.36) rotate(-23.4)"/>
    <rect class="cls-17" x="374.47" y="251.48" width="5.09" height="3.33" transform="translate(65.89 -77.65) rotate(12.88)"/>
    <rect class="cls-17" x="375.04" y="241.29" width="8.11" height="5.51" transform="translate(63.91 -78.34) rotate(12.88)"/>
    <rect class="cls-17" x="461.83" y="209.48" width="9.13" height="10.04" transform="translate(-42.81 149.37) rotate(-17.41)"/>
    <rect class="cls-17" x="534.78" y="26.29" width="39.13" height="47.08" transform="translate(39.74 261.87) rotate(-27.53)"/>
    <rect class="cls-17" x="355.21" y="245.4" width="6.32" height="3.84" transform="translate(125.97 -120.9) rotate(23.13)"/>
    <rect class="cls-17" x="370.15" y="216.74" width="5.09" height="4.25" transform="translate(332.31 -211.45) rotate(54.22)"/>
    <rect class="cls-17" x="375.48" y="213.55" width="8.04" height="7.27" transform="translate(333.78 -217.66) rotate(54.22)"/>
    <rect class="cls-17" x="330.53" y="239.11" width="6.12" height="7.17" transform="translate(477.09 -144.08) rotate(74.32)"/>
    <rect class="cls-17" x="300.88" y="227.73" width="10.97" height="11.57" transform="translate(157.8 -121.9) rotate(30)"/>
    <rect class="cls-17" x="290.4" y="224.36" width="7.88" height="8.67" transform="translate(153.78 -116.53) rotate(30)"/>
    <rect class="cls-17" x="299.54" y="214.11" width="9.39" height="7.7"/>
    <path class="cls-17" d="m298.23,223.24c-3.1,0-5.61-2.34-5.61-5.22s2.51-5.22,5.61-5.22v10.43Z"/>
    <path class="cls-17" d="m302.03,253.96c.03-.07,1.17-2.4,1.21-2.46,1.66-2.97,5.42-4.11,8.51-2.52s4.37,5.3,2.92,8.38c-.03.07-1.17,2.39-1.2,2.46l-11.44-5.86Z"/>
    <path class="cls-17" d="m262.3,211.6c-5.19,0-9.39-3.47-9.39-7.74s4.2-7.74,9.39-7.74v1.81l18.52.15-.03,11.18-18.49-.06v2.4Z"/>
    <rect class="cls-17" x="291.19" y="157.89" width="13.57" height="37.83"/>
    <rect class="cls-17" x="280.62" y="177.72" width="9.26" height="17.09"/>
    <polygon class="cls-17" points="287.67 161.15 285.29 161.15 285.29 163.3 281.37 163.3 281.31 161.15 278.67 161.15 278.67 157.37 287.67 157.37 287.67 161.15"/>
    <rect class="cls-17" x="260.41" y="145.76" width="20.74" height="9.78"/>
    <rect class="cls-17" x="298.55" y="102.65" width="4.33" height="3.65" transform="translate(-16.8 127.51) rotate(-23.31)"/>
    <ellipse class="cls-17" cx="282.39" cy="65.83" rx="5.85" ry="5.94"/>
    <path class="cls-17" d="m97.9,122.02l29.06.85c3.5.1,6.43-2.48,6.53-5.75h0c.1-3.26-2.69-6.02-6.18-6.12l-29.06-.85-.35,11.86Z"/>
    <path class="cls-17" d="m336.51,309.09l46.4,32.81c5.58,3.95,12.19,4.29,14.68.77h0c2.49-3.52-.04-9.63-5.62-13.58l-46.4-32.81-9.06,12.81Z"/>
    <g>
      <rect class="cls-17" x="374.31" y="283.09" width="22.78" height="11.84" transform="translate(268.23 -178.42) rotate(39.05)"/>
      <rect class="cls-17" x="369.59" y="292.1" width="22.78" height="5.47" transform="translate(270.84 -174.14) rotate(39.05)"/>
      <rect class="cls-17" x="371.57" y="298.63" width="16.02" height="7" transform="translate(275.13 -171.63) rotate(39.05)"/>
      <path class="cls-17" d="m383.48,309.91c-.88,1.09-2.61,1.15-3.87.13s-1.56-2.72-.68-3.81l4.55,3.68Z"/>
      <rect class="cls-17" x="366.84" y="283.26" width="5.52" height="7.95" transform="translate(263.51 -168.67) rotate(39.05)"/>
      <polygon class="cls-16" points="374.44 285.19 373.85 285.94 371.93 284.64 370.3 289.53 372.22 290.74 376.23 294.16 375.55 295.14 379.43 306.03 378.97 306.68 383.05 309.94 383.83 309.16 388.92 302.74 392.54 298.11 374.44 285.19"/>
    </g>
  </g>
  <g id="Labels">
    <text class="cls-25" style="white-space: pre; text-anchor: middle;" x="114.751" y="107.155"><tspan x="114.751" y="107.155" style="font-size: 7px; word-spacing: 0px;">Circus of  Nero</tspan></text>
    <text class="cls-25" style="white-space: pre;" x="305.593" y="73.961"><tspan x="305.593" y="73.961" style="font-size: 7px; word-spacing: 0px;">Mausoleum of Augustus</tspan></text>
    <text class="cls-25" style="white-space: pre; text-anchor: end;" x="305.794" y="113.688"><tspan x="305.794" y="113.688" style="font-size: 7px; word-spacing: 0px;">Altar of Peace</tspan></text>
    <text class="cls-25" style="white-space: pre; text-anchor: end;" x="317.423" y="144.815"><tspan x="317.423" y="144.815" style="font-size: 7px; word-spacing: 0px;">Baths of Nero</tspan></text>
    <text class="cls-25" transform="matrix(0.999949, -0.010096, 0.010096, 0.999949, 277.787043, 163.995012)" style="white-space: pre; text-anchor: end; transform-box: fill-box; transform-origin: 50% 50%;"><tspan class="cls-50" x="0" y="0" style="font-size: 7px; word-spacing: 0px; letter-spacing: -0.21px;">Pantheon</tspan></text>
    <text class="cls-25" transform="matrix(-0.000546, -1, 1, -0.000546, 311.009465, 179.506107)" style="white-space: pre; text-anchor: middle; transform-box: fill-box; transform-origin: 50% 50%;"><tspan x="0" y="0" style="font-size: 7px; word-spacing: 0px;">Saepta Julia</tspan></text>
    <text class="cls-25" style="white-space: pre; text-anchor: end;" x="278.755" y="186.784"><tspan x="278.755" y="186.784" style="font-size: 7px; word-spacing: 0px;">Baths of Agrippa</tspan></text>
    <text class="cls-25" transform="matrix(0.862626, 0.505842, -0.505842, 0.862626, 232.052922, 210.562924)" style="white-space: pre; text-anchor: middle; transform-box: fill-box; transform-origin: 50% 50%;"><tspan class="cls-51" x="0" y="0" style="font-size: 7px; word-spacing: 0px; letter-spacing: 0.14px;">Theater andPortico ofPompey</tspan></text>
    <text class="cls-25" style="white-space: pre; text-anchor: middle;" x="312.374" y="210.403"><tspan class="cls-51" x="312.374" y="210.403" style="font-size: 7px; word-spacing: 0px; letter-spacing: 0.14px;">Theater of Balbus</tspan></text>
    <text class="cls-24" transform="translate(293.17 230.59)" style="white-space: pre;"><tspan x="0" y="0">1</tspan></text>
    <text class="cls-24" transform="translate(304.31 235.56)" style="white-space: pre;"><tspan x="0" y="0">2</tspan></text>
    <text class="cls-24" transform="translate(307.42 255.59)" style="white-space: pre;"><tspan x="0" y="0">3</tspan></text>
    <text class="cls-24" transform="translate(338.49 242.31)" style="white-space: pre;"><tspan x="0" y="0">4</tspan></text>
    <text class="cls-25" style="white-space: pre;" x="394.088" y="224.766"><tspan class="cls-57" x="394.088" y="224.766" style="font-size: 7px; word-spacing: 0px; letter-spacing: -0.28px;">Forum of Augustus</tspan></text>
    <text class="cls-25" style="white-space: pre;" x="385.21" y="247.162"><tspan x="385.21" y="247.162" style="font-size: 7px; word-spacing: 0px;">Basilica Aemilia</tspan></text>
    <text class="cls-24" transform="translate(353.51 254.37)" style="white-space: pre;"><tspan x="0" y="0">5</tspan></text>
    <text class="cls-25" style="white-space: pre;" x="384.82" y="232.097"><tspan class="cls-57" x="384.82" y="232.097" style="font-size: 7px; word-spacing: 0px; letter-spacing: -0.28px;">Forum of Caesar</tspan></text>
    <text class="cls-25" style="white-space: pre; text-anchor: end;" x="504.286" y="226.899"><tspan class="cls-57" x="504.286" y="226.899" style="font-size: 7px; word-spacing: 0px; letter-spacing: -0.28px;">Portico of Livia</tspan></text>
    <text class="cls-25" style="white-space: pre; text-anchor: middle;" x="449.483" y="278.418"><tspan class="cls-52" x="449.483" y="278.418" style="font-size: 7px; word-spacing: 0px; letter-spacing: -0.42px;">Temple of Claudius</tspan></text>
    <text class="cls-25" transform="matrix(0.829754, 0.558129, -0.558129, 0.829754, 386.30865, 279.906715)" style="white-space: pre; text-anchor: middle; transform-box: fill-box; transform-origin: 50% 50%;"><tspan class="cls-56" x="0" y="0" style="font-size: 7px; word-spacing: 0px; letter-spacing: -0.21px;">Palace of Augustus</tspan></text>
    <text class="cls-25" style="white-space: pre; text-anchor: middle;" x="388.204" y="261.672"><tspan class="cls-52" x="388.204" y="261.672" style="font-size: 7px; word-spacing: 0px; letter-spacing: -0.42px;">Temple of Caesar</tspan></text>
    <text class="cls-25" transform="matrix(0.823955, 0.566655, -0.566655, 0.823955, 363.899279, 335.013028)" style="white-space: pre; text-anchor: middle; transform-box: fill-box; transform-origin: 50% 50%;"><tspan x="0" y="0" style="font-size: 7px; word-spacing: 0px;">Circus Maximus</tspan></text>
    <text class="cls-25" transform="translate(267.75 403.94)" style="white-space: pre;"><tspan class="cls-57" x="0" y="0">Portico of Aemilia</tspan></text>
    <text class="cls-25" style="white-space: pre; text-anchor: end;" x="537.435" y="65.498"><tspan x="537.435" y="65.498" style="font-size: 7px; word-spacing: 0px;">Praetorium</tspan></text>
    <text class="cls-25" transform="translate(390.41 427.76)" style="white-space: pre;"><tspan x="0" y="0">Servian Wall</tspan></text>
    <text class="cls-25" style="white-space: pre; text-anchor: middle; transform-box: fill-box; transform-origin: 50% 50%;" x="404.024" y="107.915" transform="matrix(0.715426, -0.698688, 0.698688, 0.715426, 8.387287, -14.383628)"><tspan x="404.024" y="107.915" style="font-size: 7px; word-spacing: 0px;">Servian Wall</tspan></text>
    <text class="cls-22" transform="translate(209.92 119.88) rotate(-18.85)" style="white-space: pre;"><tspan x="0" y="0">Tiber River</tspan></text>
    <text class="cls-22" transform="translate(225.23 427.19) rotate(-69.29)" style="font-style: normal; white-space: pre;" x="0" y="0">Tiber River</text>
    <text class="cls-20" transform="matrix(0.469317, 0.88303, -0.88303, 0.469317, 497.543732, 440.126831)" style="font-size: 6px; white-space: pre; text-anchor: end;" x="0" y="0">Via Appia</text>
    <text class="cls-20" transform="translate(330.55 443.05) rotate(-69.74)" style="font-size: 6px; white-space: pre;" x="0" y="0">Via Ostiensis</text>
    <text class="cls-20" transform="translate(54.96 315.28) rotate(-22.21)" style="font-size: 6px; white-space: pre;" x="0" y="0">Via Aurelia</text>
    <text class="cls-20" transform="matrix(0.291704, 0.956509, -0.956509, 0.291704, 283.001099, 14.021946)" style="font-size: 6px; white-space: pre;" x="0" y="0">Via Flaminia</text>
    <text class="cls-20" transform="matrix(0.869409, -0.494094, 0.494094, 0.869409, 623.214966, 130.124695)" style="font-size: 6px; text-anchor: end; white-space: pre;" x="0" y="0">Via Praenestina</text>
    <text class="cls-20" transform="translate(170.32 441.92) rotate(-50.2)" style="font-size: 6px; white-space: pre;" x="0" y="0">Via Portuensis</text>
    <text class="cls-20" transform="matrix(0.953507, 0.301372, -0.301372, 0.953507, 621.476379, 220.589706)" style="font-size: 6px; text-anchor: end; white-space: pre;" x="0" y="0">Via Labicana</text>
    <text class="cls-20" transform="matrix(0.860653, -0.509192, 0.509192, 0.860653, 534.350464, 17.094303)" style="font-size: 6px; white-space: pre; text-anchor: end;" x="0" y="0">Via Nomentana</text>
    <text class="cls-20" transform="matrix(0.999684, 0.02513, -0.02513, 0.999684, 52.389679, 131.728592)" style="font-size: 6px; white-space: pre;" x="0" y="0">Via Cornelia</text>
    <text class="cls-20" transform="matrix(0.998994, -0.04484, 0.04484, 0.998994, 622.422058, 261.97229)" style="font-size: 6px; white-space: pre; text-anchor: end;" x="0" y="0">Via Tusculana</text>
    <text class="cls-25" style="white-space: pre; text-anchor: end;" x="150.735" y="146.862"><tspan x="150.735" y="146.862" style="font-size: 7px; word-spacing: 0px;">Aelian Bridge</tspan></text>
    <text class="cls-25" transform="matrix(0.573847, -0.818962, 0.818962, 0.573847, 334.663945, 283.438189)" style="white-space: pre; text-anchor: middle; transform-box: fill-box; transform-origin: 50% 50%;"><tspan x="0" y="0" style="font-size: 7px; word-spacing: 0px;">Aemilian Bridge</tspan></text>
    <text class="cls-25" style="white-space: pre; text-anchor: end;" x="276.367" y="277.768"><tspan x="276.367" y="277.768" style="font-size: 7px; word-spacing: 0px;">Cestian Bridge</tspan></text>
    <text class="cls-25" style="white-space: pre; text-anchor: end;" x="292.297" y="243.797"><tspan class="cls-54" x="292.297" y="243.797" style="font-size: 7px; word-spacing: 0px; letter-spacing: -0.14px;">Fabrician Bridge</tspan></text>
    <text class="cls-23" transform="matrix(0.323205, 0.946329, -0.946329, 0.323205, 323.216512, 373.347385)" style="font-size: 7px; font-style: normal; text-anchor: middle; white-space: pre; transform-box: fill-box; transform-origin: 64.2853% 64.8438%;" x="0" y="0">Aventine Hill</text>
    <text class="cls-23" transform="translate(414.6 320.42)" style="font-size: 7px; font-style: normal; white-space: pre;" x="0" y="0">Caelian Hill</text>
    <text class="cls-23" style="font-size: 7px; font-style: normal; text-anchor: middle; white-space: pre;" x="465.283" y="239.716">Esquiline Hill</text>
    <text class="cls-23" style="font-size: 7px; font-style: normal; text-anchor: end; white-space: pre;" x="424.094" y="131.854">Quirinal Hill</text>
    <text class="cls-23" transform="matrix(0.597393, -0.801949, 0.801949, 0.597393, 454.411229, 132.02872)" style="font-size: 7px; font-style: normal; text-anchor: middle; white-space: pre; transform-box: fill-box; transform-origin: 64.2857% 64.8438%;" x="0" y="0">Viminal Hill</text>
    <text class="cls-19" style="font-size: 7px; white-space: pre; text-anchor: end;" x="257.131" y="151.16">Campus Martius</text>
    <text class="cls-23" style="font-style: normal; white-space: pre; text-anchor: middle; font-size: 9px;" x="114.174" y="207.352">Janiculum Hill</text>
    <text class="cls-23" style="font-style: normal; white-space: pre; text-anchor: middle; font-size: 9px;" x="109.986" y="75.986">Vatican Hill</text>
    <text class="cls-29" style="white-space: pre; text-anchor: end;" x="281.465" y="301.405"><tspan x="281.465" y="301.405" style="font-size: 8px; word-spacing: 0px;">Jewish Community</tspan></text>
    <line class="cls-11" x1="152.28" y1="142.5" x2="165.84" y2="136.63"/>
    <line class="cls-11" x1="239.633" y1="209.577" x2="261.32" y2="204.46" style=""/>
    <line class="cls-11" x1="278.649" y1="245.265" x2="287.54" y2="255.72" style=""/>
    <line class="cls-11" x1="272.28" y1="272.02" x2="282.06" y2="268.63"/>
    <line class="cls-11" x1="326.791" y1="287.213" x2="310.36" y2="282.46" style=""/>
    <line class="cls-6" x1="393.71" y1="222.72" x2="380.14" y2="217.63"/>
    <line class="cls-6" x1="384.45" y1="230.02" x2="375.32" y2="221.67"/>
    <line class="cls-6" x1="289.88" y1="67.11" x2="304.53" y2="68.84"/>
  </g>
  <g id="Extra_Labels" data-name="Extra Labels">
    <rect class="cls-39" x="50.1" y="390.39" width="107.104" height="53.63" style=""/>
    <text class="cls-19" transform="translate(70.92 400.12)" style="font-size: 7px; white-space: pre;"><tspan x="0" y="0">Portico of Philippus</tspan><tspan x="0" y="9.8">Portico of Octavius</tspan><tspan x="0" y="19.6">Theater of Marcellus</tspan><tspan x="0" y="29.4">Capitol</tspan><tspan x="0" y="39.2">Basilica Julia </tspan></text>
    <text class="cls-19" transform="translate(55.07 400.12)" style="white-space: pre;"><tspan x="0" y="0">1.</tspan><tspan x="0" y="9.8">2.</tspan><tspan x="0" y="19.6">3.</tspan><tspan x="0" y="29.4">4.</tspan><tspan x="0" y="39.2">5.</tspan></text>
  </g>
  <g id="Key" transform="matrix(1, 0, 0, 1, -25.097717, 0.280123)">
    <rect class="cls-28" x="545.28" y="391.11" width="105.729" height="52.91" style=""/>
    <g>
      <line class="cls-13" x1="551.95" y1="399.68" x2="573.55" y2="399.68"/>
      <text class="cls-30" transform="translate(583.68 401.51)" style="white-space: pre;"><tspan x="0" y="0">City Walls </tspan></text>
    </g>
    <g>
      <g>
        <line class="cls-3" x1="551.65" y1="414.06" x2="573.25" y2="414.06"/>
        <line class="cls-9" x1="551.95" y1="414.06" x2="573.55" y2="414.06"/>
      </g>
      <text class="cls-30" transform="translate(583.68 416.2)" style="white-space: pre;"><tspan x="0" y="0">Major Roads </tspan></text>
    </g>
    <g>
      <rect class="cls-17" x="555.55" y="424.9" width="14.4" height="14.4"/>
      <text class="cls-30" transform="translate(583.68 433.05)" style="white-space: pre;"><tspan x="0" y="0">Buildings</tspan></text>
    </g>
  </g>
  <g id="Scales">
    <g>
      <line class="cls-8" x1="56.19" y1="35.98" x2="56.19" y2="31.18"/>
      <line class="cls-8" x1="135.46" y1="35.98" x2="135.46" y2="31.18"/>
      <line class="cls-8" x1="214.73" y1="35.98" x2="214.73" y2="31.18"/>
      <line class="cls-8" x1="95.58" y1="34.54" x2="95.58" y2="31.18"/>
      <line class="cls-8" x1="175.34" y1="34.54" x2="175.34" y2="31.18"/>
      <line class="cls-8" x1="56.19" y1="31.18" x2="214.73" y2="31.18"/>
      <text class="cls-20" transform="translate(54.37 42.85)" style="white-space: pre;"><tspan x="0" y="0">0</tspan></text>
      <text class="cls-20" transform="translate(208.51 42.85)" style="white-space: pre;"><tspan x="0" y="0">2 kilometer</tspan></text>
    </g>
    <g>
      <line class="cls-8" x1="56.55" y1="28.85" x2="56.55" y2="24.05"/>
      <line class="cls-8" x1="120.31" y1="28.85" x2="120.31" y2="24.05"/>
      <line class="cls-8" x1="184.44" y1="28.85" x2="184.44" y2="24.05"/>
      <line class="cls-8" x1="88.43" y1="28.85" x2="88.43" y2="25.49"/>
      <line class="cls-8" x1="152.56" y1="28.85" x2="152.56" y2="25.49"/>
      <line class="cls-8" x1="56.55" y1="28.85" x2="184.44" y2="28.85"/>
      <text class="cls-20" transform="translate(54.66 22.08)" style="white-space: pre;"><tspan x="0" y="0">0</tspan></text>
      <text class="cls-20" transform="translate(178.23 22.24)" style="white-space: pre;"><tspan x="0" y="0">1 mile</tspan></text>
    </g>
  </g>
  <g id="Compass">
    <text class="cls-36" transform="translate(600.9 45.59) rotate(-8.21)" style="white-space: pre;"><tspan x="0" y="0">µ</tspan></text>
  </g>
  <g id="Frame">
    <rect class="cls-7" x="50.1" y="12.02" width="576" height="432"/>
  </g>
</svg>