<?xml version="1.0" encoding="utf-8"?>
<svg viewBox="0 0 516.14 650.84" xmlns="http://www.w3.org/2000/svg">
  <defs>
    <style>
      .cls-1, .cls-2, .cls-3, .cls-4, .cls-5, .cls-6, .cls-7, .cls-8, .cls-9, .cls-10, .cls-11, .cls-12, .cls-13, .cls-14, .cls-15 {
        fill: none;
      }

      .cls-2 {
        stroke: #2f67b2;
      }

      .cls-2, .cls-3, .cls-5, .cls-6, .cls-7, .cls-8, .cls-9, .cls-10, .cls-16, .cls-11, .cls-12, .cls-14, .cls-15 {
        stroke-linejoin: round;
      }

      .cls-2, .cls-3, .cls-8, .cls-9, .cls-10, .cls-11, .cls-14, .cls-15 {
        stroke-linecap: round;
      }

      .cls-2, .cls-7 {
        stroke-width: 1.5px;
      }

      .cls-3 {
        stroke-dasharray: 0 0 .99 1.99;
      }

      .cls-3, .cls-7, .cls-9, .cls-11, .cls-12 {
        stroke: #fff;
      }

      .cls-3, .cls-17, .cls-9, .cls-16, .cls-11 {
        stroke-width: .5px;
      }

      .cls-4 {
        clip-path: url(#clippath-1);
      }

      .cls-18 {
        font-size: 12px;
      }

      .cls-18, .cls-19, .cls-20, .cls-21 {
        fill: #231f20;
      }

      .cls-18, .cls-20 {
        font-family: Garamond-Italic, Garamond;
        font-style: italic;
      }

      .cls-5, .cls-6, .cls-14, .cls-15 {
        stroke-width: 3px;
      }

      .cls-5, .cls-22, .cls-10, .cls-16, .cls-15 {
        stroke: #010101;
      }

      .cls-6, .cls-8, .cls-14 {
        stroke: #000;
      }

      .cls-19 {
        font-size: 8px;
      }

      .cls-19, .cls-21, .cls-23 {
        font-family: Garamond, Garamond;
      }

      .cls-8 {
        stroke-width: 2px;
      }

      .cls-17 {
        fill: #9fc9eb;
        stroke: #676767;
      }

      .cls-17, .cls-24, .cls-22 {
        stroke-miterlimit: 10;
      }

      .cls-25 {
        letter-spacing: -.08em;
      }

      .cls-24 {
        fill: #fcf9ce;
        stroke: #231f20;
      }

      .cls-22 {
        fill: #fff;
      }

      .cls-26 {
        letter-spacing: -.01em;
      }

      .cls-9 {
        stroke-dasharray: 0 0 1.03 2.06;
      }

      .cls-27 {
        letter-spacing: -.03em;
      }

      .cls-28 {
        letter-spacing: .02em;
      }

      .cls-10 {
        stroke-width: .96px;
      }

      .cls-16 {
        fill: #f69999;
      }

      .cls-29 {
        letter-spacing: -.06em;
      }

      .cls-20 {
        font-size: 9px;
      }

      .cls-12 {
        stroke-width: 1.2px;
      }

      .cls-30 {
        font-family: ESRINorth, ESRINorth;
        font-size: 38px;
      }

      .cls-30, .cls-23 {
        fill: #010101;
      }

      .cls-31 {
        letter-spacing: -.02em;
      }

      .cls-21, .cls-23 {
        font-size: 7px;
      }

      .cls-13 {
        clip-path: url(#clippath);
      }
    </style>
    <clipPath id="clippath">
      <rect class="cls-1" x="39.08" y="31.75" width="432" height="576"/>
    </clipPath>
    <clipPath id="clippath-1">
      <rect class="cls-1" x="39.08" y="31.75" width="432" height="576"/>
    </clipPath>
  </defs>
  <g id="Color_Base" data-name="Color Base">
    <rect class="cls-24" x="39.08" y="31.75" width="432" height="576"/>
  </g>
  <g id="Water">
    <path class="cls-17" d="m167.73,639.88c.52,1.57-167.48,10.7-167.48,10.7L14.08,8.84l328.14,15.07-4.5,12.03s-2.84,7.92-3.33,8.71-9.2,17.51-9.2,17.51c-5.63,9.82-14.06,33.33-20.64,43.43l-12.52,22.4c-7.8,5.97-20.38,2.46-29.35,2.74-7.61,7.7,7.07,2.95,5.09,5.48,0,0-1.08,2.15-2.15,4.01s-3.23,2.84-3.23,2.84c0,0-.2-1.57-3.33-.39s-2.25,2.25-2.54,2.54-2.35,5.48-2.93,6.95-1.47,7.34-1.96,8.71-5.09,1.96-5.09,1.96c0,0-7.34.1-7.73.2s-2.54-2.35-2.54-3.42.59-6.75.59-6.75c1.06-3.24,2.19-10,2.45-13.4,0,0,2.74-1.96,2.74-1.96,1.78-1.91,6.08-1.41,8.31-2.74.88-.66,1.83-5.43-.98-5.09-2.29.63-5.65,1.97-8.8,2.35-.88.2-.78,1.37-.98,1.66-.43.02-5.6,5.27-4.99.78.09-3.63-3.97-5.06-6.75-5.58-.37.59-2.54,3.1-2.45,4.01,0,0-1.37.39-2.15.88-2.15,2.59,2.79,8.72,5.87,7.53,8.01-1.81,4.56.75,5.09,8.31.1,2.54-2.15,8.9-2.64,11.93s-4.7,7.92-5.48,10.17-3.03,14.48-3.03,14.48c-1.47,5.55-6.63,15.5-11.15,18.78l-51.07,2.15-48.82-11.35-2.54,15.07,58.01,13.11-4.79,29.74-7.92,2.74s4.99,7.63,5.28,8.12,7.53-2.84,7.53-2.84l14.48-3.72,6.16-2.05h9.78l.2,6.55s-7.83-.1-7.92-.49-.2,3.13-.2,3.13l8.02.2-2.64,11.15,1.86,2.45,4.89,4.5,6.16,1.27,5.77,2.54s-14.48,33.36-15.46,34.43c-.86,2.47,2.94,2.2,2.15-.68l14.58-32.77,17.61,10.17,5.28,5.97v12.23l-5.38,11.25s-12.33,18.49-13.11,19.27-11.05,12.33-11.05,12.33c0,0-5.67,7.24-7.53,7.24s-1.27-.2-1.47-.49-2.84-4.5-2.84-4.5c0,0-5.09-10.66-5.09-10.96s-3.42-6.07-3.42-6.07l2.15-6.26-9.39-5.28-5.58-2.93s-4.6-3.13-4.99-3.52-10.37-5.48-10.37-5.48l-12.91-3.62.88-1.57-22.99-8.02,2.84-13.7-6.55-2.15s-4.4,9.59-4.7,9.98-17.22-7.83-17.22-7.83l-14.38-11.45-10.47-11.15-.78-36.78,6.95-24.46,19.17,2.15,1.66-7.04-14.67-10.96-5.09-1.57-2.84-.68s-1.96,1.17-2.25,1.37-4.89,4.01-4.89,4.01c0,0-3.52,4.01-4.01,4.3s-8.9,29.64-8.9,29.64l1.66,43.24-2.05.49-.39-2.54-8.9,2.64,4.99,13.79s6.36-2.35,6.46-2.64,1.17-1.37,1.66-1.96,1.37-.68,1.37-.68c0,0,1.08,4.79.98,5.97s.59.59.98.78,2.93-1.37,2.93-1.37c0,0,3.13,1.47,3.91,2.54s6.65,4.6,8.41,6.55,6.07,3.91,7.73,4.89,9.39,5.48,9.59,5.77,9,3.33,9,3.33c0,0,2.64,1.57,3.23,2.15.88,6.12-3.92,6.9-7.53,2.93-.56-.4-5.01-.68-5.87-1.08-2.37-.13,2.54,2.31,3.52,2.15.98.29.88.68,3.62,2.25s1.08.78,1.08.78c11.41,1.1,3.88,13.79,19.76,6.95,2.01-1.13,3.56-5.58,6.95-6.56,1.55.53,1.2,1.08-.69,3.42-2.34,6.36,7.86,13.96,13.99,12.82,3.41,1.43,7.01,4.02,11.74,4.01,2.54.09,6.03,1.16,7.24,3.72,2.01.57,4.99,2.75,6.07-.78.88-1.27.68.49,1.76,1.08s0,.59,0,1.17.88.98,2.25,1.86c6,13.78,7.05,3.58,11.74,8.02.2.88-.2,1.37-.68,2.35s-.68.98-1.86,2.15-.49,1.47-.29,1.76,2.84,1.57,5.18,2.93,1.57,1.17,1.86,1.37.49-2.74.49-3.62,2.35,0,4.01.29.88.49,1.37.88,1.47,2.25,1.76,2.64.68,2.45.68,2.93-5.87,3.42-5.87,3.42l-2.35,22.79-4.3,27.68s-3.23,21.23-3.62,22.21-6.65,21.91-6.65,21.91c0,0-4.3,8.71-4.99,9.98s-4.6,6.95-7.73,9.49c-10.51,7.59-4.99,3.97-10.37-2.74-4.04-1.77-4.68,4.16-6.46-3.81-.2-.68,0,0-4.21,1.66s-1.47,1.17-3.62.78c-5.15.1-8.9,6.49-13.89,10.18-5.97,4.11-5.34.92-9.29,8.8-2.32,5.02,1.05,1.93-.68,7.04-1.7,2.8-4.66,8.52,1.47,9.78,3.76,4.53,2.41,11.32,12.42,7.53,5.09-1.37,1.57,0,1.57,0,4.77-2.66,9.21-2.14,14.97-.2,4.74,1.55,3.3,4.94,4.11,9,1.57,10.78-4.05,16.21-11.93,21.72-.97,12.4-.79,4.28,4.3,14.87.63,3.89-4.76,5.69-1.18,11.15,2.15,9.16,12.25,14.49,18.1,20.05l1.96,8.22s6.65,25.7,7.17,27.26Zm-95.8-337.47l10.08,7.04,1.08-1.47-9.88-7.14-1.27,1.57Zm-9.88-8.9l7.63,7.92,1.37-1.17-7.43-7.83-1.57,1.08Zm22.4,17.22l10.57,5.77.49-1.76-10.47-5.67-.59,1.66Zm-34.83-38.84h3.23l-.39-12.23-3.03.2.2,12.03Zm-.2-14.67s2.74.49,2.74.2.49-14.97.49-14.97l-3.03-.1-.2,14.87Zm.98-18.68l3.03.29.59-11.54-3.03-.1-.59,11.35Zm1.66-17.61s2.64,2.15,2.93,1.66,7.14-16.34,7.14-16.34c0,0-2.84-1.27-3.03-.98s-7.04,15.65-7.04,15.65Zm170.71-91.86c2.21,1.29,1.52-3.01,2.05-4.99.36-1.98-2.85-.87-3.62-1.27-1.69,2.35-.63,4.31,1.57,6.26Zm-24.26-10.86c7.13-4.06,6.13-20.85-2.84-12.52-.47.87-2.27,1.53-3.91,1.57-11.26-1.08.84,14.25,6.75,10.96Z"/>
  </g>
  <g id="Aqueducts">
    <line class="cls-2" x1="318.26" y1="136.4" x2="364.3" y2=".75"/>
    <g>
      <line class="cls-11" x1="318.26" y1="136.4" x2="318.42" y2="135.93"/>
      <line class="cls-3" x1="319.06" y1="134.04" x2="363.82" y2="2.17"/>
      <line class="cls-11" x1="364.14" y1="1.22" x2="364.3" y2=".75"/>
    </g>
  </g>
  <g id="Walls">
    <path class="cls-14" d="m141.39,571.14c54.15-1.03,145.5,17.26,169.04-48,18.94-39.3,36.53-87.21,42.52-130.44,13.57-74.71-2.26-156.18-20.22-228.91,0,0-6.26-20.35-6.26-20.35-15.56-10.35-41.05-5.48-58.7-7.43"/>
  </g>
  <g id="Roads">
    <g id="Roads_Base" data-name="Roads Base">
      <g class="cls-13">
        <line class="cls-6" x1="314.73" y1="98.05" x2="240.39" y2="524.97"/>
        <line class="cls-6" x1="266.21" y1="543.36" x2="329.99" y2="179.45"/>
        <polyline class="cls-6" points="197.73 506.18 300.26 524.58 346.23 253.6"/>
        <line class="cls-6" x1="213.91" y1="508.14" x2="236.08" y2="377.45"/>
        <line class="cls-6" x1="225.78" y1="443.84" x2="329.21" y2="461.97"/>
        <line class="cls-6" x1="211.04" y1="407.18" x2="340.76" y2="430.6"/>
        <line class="cls-6" x1="212.99" y1="375.1" x2="346.43" y2="397.4"/>
        <line class="cls-6" x1="240.78" y1="325.4" x2="515.86" y2="377.45"/>
        <line class="cls-6" x1="203.6" y1="255.36" x2="341.73" y2="278.05"/>
        <line class="cls-6" x1="274.43" y1="334.79" x2="350.73" y2="372.36"/>
        <polyline class="cls-6" points="299.93 524.97 328.82 462.36 342.13 426.75 350.73 372.36 353.08 339.1 352.69 301.92 347.6 260.45 328.04 169.66 321.78 146.18 307.3 141.49"/>
      </g>
    </g>
    <g id="Roads_Highlight" data-name="Roads Highlight">
      <g class="cls-4">
        <line class="cls-7" x1="314.73" y1="98.05" x2="240.39" y2="524.97"/>
        <line class="cls-7" x1="266.21" y1="543.36" x2="329.99" y2="179.45"/>
        <polyline class="cls-7" points="197.73 506.18 300.26 524.58 346.23 253.6"/>
        <line class="cls-7" x1="213.84" y1="508.4" x2="235.76" y2="379.34"/>
        <line class="cls-7" x1="225.39" y1="443.71" x2="329.21" y2="461.97"/>
        <line class="cls-7" x1="211.04" y1="407.18" x2="340.3" y2="430.47"/>
        <line class="cls-7" x1="212.99" y1="375.1" x2="346.43" y2="397.4"/>
        <line class="cls-7" x1="240.78" y1="325.4" x2="515.86" y2="377.45"/>
        <line class="cls-7" x1="203.6" y1="255.36" x2="341.73" y2="278.05"/>
        <line class="cls-7" x1="273.71" y1="334.47" x2="350.73" y2="372.36"/>
        <polyline class="cls-7" points="300.26 524.58 328.82 462.36 342.13 426.75 350.73 372.36 353.08 339.1 352.69 301.92 347.6 260.45 328.04 169.66 321.78 146.18 307.3 141.49"/>
      </g>
    </g>
  </g>
  <g id="Buildings">
    <rect class="cls-16" x="124.04" y="503.36" width="27.8" height="16.7" transform="translate(92.07 -16.28) rotate(10.12)"/>
    <rect class="cls-16" x="154.7" y="509.79" width="17.98" height="9.62" transform="translate(92.98 -20.76) rotate(10.12)"/>
    <rect class="cls-16" x="152.43" y="499.37" width="19.71" height="7.31" transform="translate(90.92 -20.69) rotate(10.12)"/>
    <rect class="cls-16" x="200.73" y="539.47" width="4.11" height="22.8" transform="translate(243.15 -34.75) rotate(24.15)"/>
    <path class="cls-16" d="m212.67,539.29c6.58,2.92,9.36,11.06,6.2,18.2s-11.06,10.55-17.64,7.64l11.44-25.83Z"/>
    <rect class="cls-16" x="141.63" y="447.59" width="103.61" height="19.46" rx="7.53" ry="7.53" transform="translate(-289.58 572.44) rotate(-80.48)"/>
    <rect class="cls-16" x="239.22" y="352.97" width="17.98" height="9.62" transform="translate(228.26 -77.21) rotate(32.12)"/>
  </g>
  <g id="Labels">
    <text class="cls-19" transform="matrix(0.835238, 0.549888, -0.549888, 0.835238, 251.18095, 350.655861)" style="white-space: pre; text-anchor: middle; transform-box: fill-box; transform-origin: 50% 50%;"><tspan class="cls-29" x="0" y="0" style="font-size: 8px; word-spacing: 0px; letter-spacing: -0.48px;">Temple</tspan></text>
    <text class="cls-21" transform="translate(152.07 528.79)" style="white-space: pre;"><tspan x="0" y="0">Herod’sPalace</tspan></text>
    <text class="cls-19" transform="translate(222.86 554.98)" style="white-space: pre;"><tspan class="cls-28" x="0" y="0">Theater</tspan></text>
    <text class="cls-19" transform="matrix(0.180862, -0.983508, 0.983508, 0.180862, 212.075485, 454.991211)" style="white-space: pre; text-anchor: middle;"><tspan x="0" y="0" style="font-size: 8px; word-spacing: 0px;">Stadium</tspan></text>
    <text class="cls-20" style="font-style: normal; white-space: pre; font-size: 9px; text-anchor: middle;" x="115.759" y="250.666">Outer Harbor</text>
    <text class="cls-20" transform="matrix(0.475072, -0.879947, 0.879947, 0.475072, 213.770757, 329.567564)" style="font-style: normal; white-space: pre; text-anchor: middle; font-size: 9px; transform-box: fill-box; transform-origin: 50% 50%;" x="0" y="0">Inner Harbor </text>
    <text class="cls-18" style="font-style: normal; white-space: pre; font-size: 12px; text-anchor: middle;" x="137.566" y="104.608">Mediterranean Sea</text>
  </g>
  <g id="Key" transform="matrix(1, 0, 0, 1, -29.317844, 0.823267)">
    <rect class="cls-22" x="387.17" y="31.75" width="112.715" height="75.87" style=""/>
    <g>
      <line class="cls-15" x1="397.78" y1="43.06" x2="419.38" y2="43.06"/>
      <text class="cls-23" transform="translate(433.54 44.89)" style="white-space: pre;"><tspan x="0" y="0">City Walls </tspan></text>
    </g>
    <g>
      <g>
        <line class="cls-5" x1="397.78" y1="58.35" x2="419.38" y2="58.35"/>
        <line class="cls-12" x1="397.78" y1="58.35" x2="419.38" y2="58.35"/>
      </g>
      <text class="cls-23" transform="translate(433.54 60.48)" style="white-space: pre;"><tspan class="cls-31" x="0" y="0">Road</tspan></text>
    </g>
    <g>
      <g>
        <line class="cls-2" x1="397.78" y1="74.14" x2="419.38" y2="74.14"/>
        <g>
          <line class="cls-11" x1="397.78" y1="74.14" x2="398.28" y2="74.14"/>
          <line class="cls-9" x1="400.34" y1="74.14" x2="417.85" y2="74.14"/>
          <line class="cls-11" x1="418.88" y1="74.14" x2="419.38" y2="74.14"/>
        </g>
      </g>
      <text class="cls-23" transform="translate(433.59 76.08)" style="white-space: pre;"><tspan x="0" y="0">Aqueduct</tspan></text>
    </g>
    <g>
      <rect class="cls-16" x="401.38" y="85.69" width="14.4" height="14.4"/>
      <text class="cls-23" transform="translate(433.54 94.84)" style="white-space: pre;"><tspan x="0" y="0">Buildings</tspan></text>
    </g>
  </g>
  <g id="Scales" transform="matrix(1, 0, 0, 1, -28.385632, 0.463789)">
    <g>
      <line class="cls-10" x1="283.95" y1="596.22" x2="283.95" y2="591.42"/>
      <line class="cls-10" x1="368.6" y1="596.22" x2="368.6" y2="591.42"/>
      <line class="cls-10" x1="453.26" y1="596.22" x2="453.26" y2="591.42"/>
      <line class="cls-10" x1="326.01" y1="594.78" x2="326.01" y2="591.42"/>
      <line class="cls-10" x1="411.19" y1="594.78" x2="411.19" y2="591.42"/>
      <line class="cls-10" x1="283.95" y1="591.42" x2="453.26" y2="591.42"/>
      <text class="cls-19" transform="translate(282.25 602.89)" style="white-space: pre;"><tspan x="0" y="0">0</tspan></text>
      <text class="cls-19" transform="translate(447.69 602.89)" style="white-space: pre;"><tspan x="0" y="0">500 meters</tspan></text>
    </g>
    <g>
      <line class="cls-10" x1="283.56" y1="589.1" x2="283.56" y2="584.3"/>
      <line class="cls-10" x1="364.09" y1="589.1" x2="364.09" y2="584.3"/>
      <line class="cls-10" x1="445.09" y1="589.1" x2="445.09" y2="584.3"/>
      <line class="cls-10" x1="323.82" y1="589.1" x2="323.82" y2="585.74"/>
      <line class="cls-10" x1="404.82" y1="589.1" x2="404.82" y2="585.74"/>
      <line class="cls-10" x1="283.56" y1="589.1" x2="445.09" y2="589.1"/>
      <text class="cls-19" transform="translate(281.92 581.99)" style="white-space: pre;"><tspan x="0" y="0">0</tspan></text>
      <text class="cls-19" transform="translate(439.37 581.99)" style="white-space: pre;"><tspan x="0" y="0">500 yards </tspan></text>
    </g>
  </g>
  <g id="Compass">
    <text class="cls-30" transform="translate(46.53 66.19)" style="white-space: pre;"><tspan x="0" y="0">µ</tspan></text>
  </g>
  <g id="Frame">
    <rect class="cls-8" x="39.08" y="31.75" width="432" height="576"/>
  </g>
</svg>